<?xml version="1.0" standalone="no"?>
<!DOCTYPE svg PUBLIC "-//W3C//DTD SVG 20010904//EN"
 "http://www.w3.org/TR/2001/REC-SVG-20010904/DTD/svg10.dtd">
<svg version="1.0" xmlns="http://www.w3.org/2000/svg"
 width="537.000000pt" height="288.000000pt" viewBox="0 0 537.000000 288.000000"
 preserveAspectRatio="xMidYMid meet">

<g transform="translate(0.000000,288.000000) scale(0.100000,-0.100000)"
fill="#000000" stroke="none">
<path d="M4257 1909 c-22 -3 -50 -18 -65 -33 -24 -23 -27 -36 -32 -113 l-5
-88 -42 -3 c-40 -3 -43 -5 -43 -33 0 -28 2 -29 45 -29 l45 0 0 -165 0 -165 35
0 35 0 0 165 0 165 45 0 c43 0 45 1 45 30 0 29 -2 30 -45 30 l-45 0 0 63 c0
87 15 111 68 115 39 3 42 5 42 31 0 33 -21 41 -83 30z"/>
<path d="M3950 1857 c-31 -15 -37 -52 -14 -78 22 -25 49 -24 75 2 22 22 19 55
-9 77 -19 15 -21 15 -52 -1z"/>
<path d="M3650 1725 l0 -55 -40 0 c-38 0 -40 -2 -40 -30 0 -28 2 -30 39 -30
l38 0 5 -134 c3 -103 8 -140 21 -160 20 -30 78 -48 127 -38 30 7 35 12 38 40
3 31 2 32 -27 26 -20 -4 -39 -1 -56 10 -24 16 -25 19 -25 136 l0 120 50 0 c49
0 50 1 50 30 0 29 -1 30 -50 30 l-50 0 0 55 0 55 -40 0 -40 0 0 -55z"/>
<path d="M1935 1662 c-170 -80 -141 -341 42 -382 47 -11 107 1 144 29 16 12
31 21 34 21 3 0 5 -52 5 -115 l0 -115 35 0 35 0 0 285 0 285 -35 0 c-31 0 -35
-3 -35 -26 l0 -25 -36 27 c-47 37 -130 43 -189 16z m159 -64 c28 -12 66 -81
66 -119 -1 -46 -35 -105 -73 -122 -43 -21 -67 -21 -112 -3 -86 36 -101 164
-29 231 21 19 38 25 75 25 26 0 59 -5 73 -12z"/>
<path d="M2895 1662 c-80 -38 -122 -115 -112 -209 11 -107 89 -177 196 -176
66 1 96 11 139 48 l32 27 -24 19 c-24 19 -25 19 -62 -6 -43 -29 -100 -33 -144
-10 -33 17 -60 52 -60 77 0 17 13 18 156 18 l157 0 -6 50 c-14 113 -70 172
-171 177 -44 3 -72 -2 -101 -15z m146 -52 c21 -12 49 -60 49 -85 0 -13 -18
-15 -115 -15 -110 0 -115 1 -115 21 0 12 15 36 34 55 29 29 41 34 81 34 25 0
55 -5 66 -10z"/>
<path d="M3307 1659 c-49 -26 -70 -72 -56 -122 12 -45 36 -62 121 -88 84 -25
101 -47 63 -85 -23 -23 -32 -25 -68 -20 -23 4 -50 14 -60 24 -16 15 -21 15
-44 2 -40 -22 -38 -36 6 -66 33 -22 52 -26 104 -26 104 0 157 40 157 118 0 70
-27 93 -147 124 -49 12 -69 39 -53 70 13 25 85 28 118 4 20 -14 24 -13 47 3
29 21 28 30 -8 57 -40 29 -131 32 -180 5z"/>
<path d="M2340 1543 c0 -142 10 -194 45 -228 50 -51 153 -50 208 2 l27 27 0
-32 c0 -30 2 -32 35 -32 l35 0 0 195 0 195 -34 0 -33 0 -5 -126 c-4 -105 -8
-130 -25 -152 -34 -45 -64 -58 -110 -44 -56 17 -63 39 -63 192 l0 130 -40 0
-40 0 0 -127z"/>
<path d="M3940 1475 l0 -195 35 0 35 0 0 195 0 195 -35 0 -35 0 0 -195z"/>
<path d="M4360 1667 c0 -2 36 -90 80 -196 l79 -192 -23 -53 c-28 -63 -37 -70
-88 -68 -37 2 -38 1 -38 -33 l0 -35 50 0 c62 0 92 14 115 53 11 18 63 142 116
277 l96 245 -30 3 c-16 2 -34 1 -40 -1 -7 -3 -34 -68 -62 -146 -27 -77 -53
-141 -56 -141 -3 0 -30 64 -60 143 l-54 142 -42 3 c-24 2 -43 1 -43 -1z"/>
</g>
</svg>
